<svg width="181" height="36" viewBox="0 0 181 36" fill="none" xmlns="http://www.w3.org/2000/svg">
<path d="M66.0766 21.398C66.0146 21.832 64.5886 21.491 64.5886 23.909V26.544C64.5886 28.962 66.0146 28.621 66.0766 29.055C66.1076 29.241 65.9526 29.365 65.7666 29.365C65.6736 29.365 64.5886 29.334 64.5886 29.334C62.8526 29.365 58.8226 29.365 57.9856 29.365C52.9946 29.365 48.9336 25.49 48.9336 20.716C48.9336 15.942 53.2426 12.098 58.2336 12.098C62.6046 12.098 66.0766 14.361 65.7046 16.872C65.1776 20.561 59.3496 20.716 59.3496 17.027C61.6746 17.027 60.9926 13.462 58.2336 13.462C56.1876 13.462 54.2656 16.717 54.2656 20.716C54.2656 25.862 57.1796 27.66 60.0936 27.412V23.909C60.0626 21.491 58.6366 21.832 58.5746 21.398C58.5436 21.212 58.7296 21.088 58.8846 21.088C59.0706 21.088 60.8686 21.522 62.3256 21.522C63.8136 21.522 65.5806 21.088 65.7666 21.088C65.9526 21.088 66.1076 21.212 66.0766 21.398ZM71.1819 26.544C71.1819 28.962 72.6389 28.621 72.7009 29.055C72.7319 29.241 72.5459 29.365 72.3599 29.365C72.0189 29.365 70.5309 28.993 69.4149 28.993C68.2989 28.993 66.8109 29.365 66.4389 29.365C66.2839 29.365 66.0979 29.241 66.1289 29.055C66.1909 28.621 67.6479 28.962 67.6479 26.544V16.221C67.6479 13.803 66.0979 13.555 66.1289 13.121C66.1289 12.966 66.2839 12.842 66.4389 12.842C67.9269 12.842 70.0349 11.633 70.4379 11.137C70.7789 10.734 71.1819 10.796 71.1819 11.23V26.544ZM85.1271 29.055C85.1581 29.241 84.9721 29.365 84.8171 29.365C84.6931 29.365 81.8721 28.528 80.0741 29.365V27.908C79.5161 28.652 78.0901 29.365 75.9511 29.365C72.4481 29.365 71.2701 25.366 75.4551 23.754C77.1291 23.103 80.0741 22.7 80.0741 21.15C80.0741 19.569 79.2991 18.236 77.8421 18.453C76.1681 18.732 76.0441 21.274 77.7491 21.274C77.7491 23.506 73.2851 23.847 73.2851 20.964C73.2851 18.949 75.5171 17.213 78.2761 17.213C81.4381 17.213 83.6391 18.577 83.6391 22.111V26.544C83.6391 28.962 85.0651 28.621 85.1271 29.055ZM80.0741 26.389V23.289C79.3301 23.94 76.0751 24.932 76.5401 26.637C76.9431 28.218 78.8961 27.815 80.0741 26.389ZM103.296 26.544C103.296 28.962 104.722 28.621 104.815 29.055C104.815 29.241 104.66 29.365 104.474 29.365C104.102 29.365 102.645 28.993 101.529 28.993C100.413 28.993 98.9246 29.365 98.5526 29.365C98.3976 29.365 98.2116 29.241 98.2426 29.055C98.3046 28.621 99.7616 28.962 99.7616 26.544V22.607C99.7616 18.701 97.7776 18.329 96.1036 20.561C96.2586 21.181 96.3516 21.863 96.3516 22.607V26.544C96.3516 28.962 97.7776 28.621 97.8396 29.055C97.8706 29.241 97.6846 29.365 97.5296 29.365C97.1576 29.365 95.6696 28.993 94.5536 28.993C93.4686 28.993 91.9802 29.365 91.6082 29.365C91.4222 29.365 91.2672 29.241 91.2982 29.055C91.3602 28.621 92.7862 28.962 92.7862 26.544V22.607C92.7862 18.701 90.9882 18.391 89.3762 20.468V26.544C89.3762 28.962 90.8332 28.621 90.8952 29.055C90.9262 29.241 90.7402 29.365 90.5542 29.365C90.2132 29.365 88.7252 28.993 87.6092 28.993C86.4932 28.993 85.0052 29.365 84.6332 29.365C84.4782 29.365 84.2922 29.241 84.3232 29.055C84.3852 28.621 85.8422 28.962 85.8422 26.544V22.576C85.8422 20.127 84.2922 19.91 84.3232 19.476C84.3232 19.321 84.4782 19.197 84.6332 19.197C86.1212 19.197 88.2292 17.988 88.6322 17.492C89.0042 17.058 89.3762 17.151 89.3762 17.554V19.042C89.3762 19.042 90.8952 17.213 92.4452 17.213C93.8716 17.213 95.0496 18.05 95.7316 19.507C96.1346 19.011 97.6536 17.213 99.3896 17.213C101.808 17.213 103.296 19.259 103.296 22.607V26.544ZM110.81 17.213C114.313 17.213 117.165 19.941 117.165 23.289C117.165 26.637 114.313 29.365 110.81 29.365C107.307 29.365 104.455 26.637 104.455 23.289C104.455 19.941 107.307 17.213 110.81 17.213ZM110.81 28.001C112.205 28.001 113.073 25.893 113.073 23.289C113.073 20.685 112.205 18.577 110.81 18.577C109.415 18.577 108.547 20.685 108.547 23.289C108.547 25.893 109.415 28.001 110.81 28.001ZM121.648 26.544C121.648 28.962 123.105 28.621 123.167 29.055C123.198 29.241 123.012 29.365 122.826 29.365C122.485 29.365 120.997 28.993 119.881 28.993C118.765 28.993 117.277 29.365 116.905 29.365C116.75 29.365 116.564 29.241 116.595 29.055C116.657 28.621 118.114 28.962 118.114 26.544V16.221C118.114 13.803 116.564 13.555 116.595 13.121C116.595 12.966 116.75 12.842 116.905 12.842C118.393 12.842 120.501 11.633 120.904 11.137C121.245 10.734 121.648 10.796 121.648 11.23V26.544ZM129.486 29.365C129.145 29.365 127.657 28.993 126.541 28.993C125.425 28.993 123.937 29.365 123.565 29.365C123.41 29.365 123.224 29.241 123.255 29.055C123.317 28.621 124.774 28.962 124.774 26.544V22.576C124.774 20.127 123.224 19.91 123.255 19.476C123.255 19.321 123.41 19.197 123.565 19.197C125.053 19.197 127.161 17.988 127.564 17.492C127.936 17.058 128.308 17.151 128.308 17.554V26.544C128.308 28.962 129.765 28.621 129.827 29.055C129.858 29.241 129.672 29.365 129.486 29.365ZM126.51 16.624C125.456 16.624 124.588 15.756 124.588 14.702C124.588 13.617 125.456 12.749 126.51 12.749C127.595 12.749 128.463 13.617 128.463 14.702C128.463 15.756 127.595 16.624 126.51 16.624ZM140.954 25.955C141.357 25.552 141.977 25.614 141.729 26.079C140.737 27.908 138.443 29.365 136.18 29.365C132.677 29.365 129.825 26.637 129.825 23.289C129.825 19.941 132.677 17.213 136.18 17.213C139.714 17.213 142.287 19.817 141.388 22.483C140.675 24.498 136.459 25.645 136.459 21.987C138.598 22.39 138.753 18.825 136.769 18.67C135.002 18.546 133.917 20.685 133.917 23.289C133.917 28.404 139.156 27.846 140.954 25.955ZM164.508 26.544C165.469 28.962 166.802 28.497 167.05 28.962C167.143 29.117 166.988 29.365 166.802 29.365C166.616 29.365 164.353 28.931 162.865 28.931C161.377 28.931 159.765 29.365 159.579 29.365C159.362 29.365 159.176 29.272 159.207 29.086C159.269 28.683 160.633 28.962 159.672 26.544L158.835 24.405H151.674C150.992 26.234 151.767 28.187 152.914 28.838C153.193 28.993 153.038 29.365 152.697 29.365C152.604 29.365 150.992 28.931 149.814 28.931C148.822 28.931 147.179 29.365 147.086 29.365C146.931 29.365 146.807 29.148 146.9 28.962C147.148 28.497 148.45 28.869 149.411 26.451L153.999 14.888C154.96 12.47 153.348 12.904 153.503 12.377C153.534 12.191 153.751 12.098 153.937 12.098C154.03 12.098 155.58 12.439 156.882 12.439C158.153 12.439 159.858 12.098 159.982 12.098C160.168 12.098 160.323 12.16 160.354 12.284C160.54 12.873 158.928 12.47 159.889 14.888L164.508 26.544ZM152.232 23.041H158.277L155.27 15.415L152.232 23.041ZM174.594 12.377C174.501 12.842 173.075 12.47 173.075 14.888V26.544C173.075 28.962 174.501 28.621 174.594 29.055C174.594 29.241 174.439 29.365 174.253 29.365C174.067 29.365 172.3 28.931 170.812 28.931C169.324 28.931 167.557 29.365 167.371 29.365C167.216 29.365 167.03 29.241 167.061 29.055C167.123 28.621 168.58 28.962 168.58 26.544V14.888C168.58 12.47 167.123 12.842 167.061 12.377C167.03 12.191 167.216 12.098 167.371 12.098C167.557 12.098 169.355 12.501 170.812 12.501C172.3 12.501 174.067 12.098 174.253 12.098C174.439 12.098 174.594 12.191 174.594 12.377Z" fill="#072032"/>
<path d="M176.832 28.326C176.832 27.5613 177.018 27.024 177.39 26.714C177.762 26.404 178.206 26.249 178.723 26.249C179.26 26.249 179.715 26.404 180.087 26.714C180.48 27.024 180.676 27.5613 180.676 28.326C180.676 29.07 180.48 29.6073 180.087 29.938C179.715 30.2687 179.26 30.434 178.723 30.434C178.206 30.434 177.762 30.2687 177.39 29.938C177.018 29.6073 176.832 29.07 176.832 28.326Z" fill="#F55755"/>
<mask id="mask0_4550_2197" style="mask-type:luminance" maskUnits="userSpaceOnUse" x="0" y="0" width="37" height="36">
<path d="M36.7826 0H0V36H36.7826V0Z" fill="white"/>
</mask>
<g mask="url(#mask0_4550_2197)">
<mask id="mask1_4550_2197" style="mask-type:luminance" maskUnits="userSpaceOnUse" x="0" y="0" width="37" height="36">
<path d="M36.7255 0H0V35.9886H36.7255V0Z" fill="white"/>
</mask>
<g mask="url(#mask1_4550_2197)">
<path d="M14.7123 19.7943C14.7123 18.3086 14.7123 16.8914 14.7123 15.4286C22.0002 15.4286 29.2654 15.4286 36.5191 15.4286C37.7414 22.88 33.195 32.4 23.4168 35.2457C13.273 38.2171 2.74081 31.9543 0.44475 21.5657C-1.83989 11.1886 4.93405 2.24 13.2044 0C13.2158 0.194286 13.2273 0.377143 13.2273 0.56C13.2273 8.64 13.2273 16.7085 13.2273 24.7886C13.2273 27.1542 14.5638 29.12 16.7342 29.8057C18.7675 30.4457 20.6066 30.0228 22.0688 28.4571C23.5652 26.8686 23.9079 24.96 23.0626 22.9486C22.2059 20.9143 20.5724 19.8743 18.3791 19.8057C17.3739 19.7714 16.3572 19.7943 15.352 19.7943C15.1578 19.7943 14.9521 19.7943 14.7123 19.7943ZM11.7651 2.09143C4.79698 4.86857 -0.606182 13.3828 2.26103 22.6286C4.92263 31.2229 13.9355 36.3086 22.7656 33.8857C31.8127 31.4171 35.7652 22.8571 35.1484 16.9029C28.8427 16.9029 22.5258 16.9029 16.163 16.9029C16.163 17.2343 16.1858 17.5429 16.163 17.84C16.1288 18.2286 16.2887 18.3429 16.6542 18.3314C17.3054 18.3086 17.9451 18.32 18.5962 18.3314C22.0574 18.4114 24.8332 21.2114 24.9932 24.7543C25.1416 28.0686 22.5258 31.12 19.1788 31.5086C15.1807 31.9772 11.7766 28.9257 11.7651 24.8343C11.7537 17.52 11.7651 10.2057 11.7651 2.89143C11.7651 2.65143 11.7651 2.41143 11.7651 2.09143Z" fill="#527475"/>
<path d="M11.7654 2.09106C11.7654 2.41107 11.7654 2.65107 11.7654 2.89107C11.7654 10.2053 11.754 17.5197 11.7654 24.8339C11.7768 28.9253 15.1695 31.9768 19.1791 31.5082C22.5146 31.1197 25.1419 28.0682 24.9934 24.7539C24.8335 21.1996 22.0576 18.411 18.5965 18.3311C17.9454 18.3196 17.3056 18.3082 16.6545 18.3311C16.289 18.3425 16.1291 18.2282 16.1634 17.8397C16.1861 17.5425 16.1634 17.2339 16.1634 16.9025C22.5375 16.9025 28.843 16.9025 35.1487 16.9025C35.7655 22.8682 31.813 31.4167 22.7659 33.8853C13.9244 36.3082 4.9229 31.2225 2.26131 22.6282C-0.605909 13.3825 4.79725 4.86821 11.7654 2.09106Z" fill="#527475"/>
<path d="M25.85 1.93359C26.0866 1.93359 26.2784 2.12547 26.2784 2.36217C26.2784 3.50849 26.8556 4.69068 27.7593 5.59482C28.6631 6.49896 29.8447 7.07645 30.9905 7.07645C31.2271 7.07645 31.4188 7.26833 31.4188 7.50502C31.4188 7.74171 31.2271 7.93356 30.9905 7.93356C29.8447 7.93356 28.6631 8.51105 27.7593 9.4152C26.8556 10.3193 26.2784 11.5015 26.2784 12.6479C26.2784 12.8846 26.0866 13.0765 25.85 13.0765C25.6134 13.0765 25.4217 12.8846 25.4217 12.6479C25.4217 11.5015 24.8444 10.3193 23.9407 9.4152C23.0371 8.51105 21.8555 7.93356 20.7096 7.93356C20.473 7.93356 20.2812 7.74171 20.2812 7.50502C20.2812 7.26833 20.473 7.07645 20.7096 7.07645C21.8555 7.07645 23.0371 6.49896 23.9407 5.59482C24.8444 4.69068 25.4217 3.50849 25.4217 2.36217C25.4217 2.12547 25.6134 1.93359 25.85 1.93359Z" fill="#527475"/>
<path d="M29.9951 1.36182C30.1171 1.36182 30.2227 1.44635 30.2495 1.56537L30.3833 2.15954C30.4747 2.56525 30.7913 2.88208 31.1969 2.97347L31.7907 3.10733C31.9098 3.13413 31.9942 3.23983 31.9942 3.36182C31.9942 3.48381 31.9098 3.5895 31.7907 3.61631L31.1969 3.75015C30.7913 3.84154 30.4747 4.15838 30.3833 4.56409L30.2495 5.15827C30.2227 5.27729 30.1171 5.36182 29.9951 5.36182C29.8733 5.36182 29.7676 5.27729 29.7408 5.15827L29.607 4.56409C29.5157 4.15838 29.199 3.84154 28.7934 3.75015L28.1996 3.61631C28.0806 3.5895 27.9961 3.48381 27.9961 3.36182C27.9961 3.23983 28.0806 3.13413 28.1996 3.10733L28.7934 2.97347C29.199 2.88208 29.5157 2.56526 29.607 2.15954L29.7408 1.56537C29.7676 1.44635 29.8733 1.36182 29.9951 1.36182Z" fill="#527475"/>
</g>
</g>
</svg>
