<svg width="184" height="42" viewBox="0 0 184 42" fill="none" xmlns="http://www.w3.org/2000/svg">
<path d="M179.898 28.326C179.898 27.5613 180.084 27.024 180.456 26.714C180.828 26.404 181.272 26.249 181.789 26.249C182.326 26.249 182.781 26.404 183.153 26.714C183.546 27.024 183.742 27.5613 183.742 28.326C183.742 29.07 183.546 29.6073 183.153 29.938C182.781 30.2687 182.326 30.434 181.789 30.434C181.272 30.434 180.828 30.2687 180.456 29.938C180.084 29.6073 179.898 29.07 179.898 28.326Z" fill="#F55755"/>
<path d="M69.143 21.3982C69.081 21.8322 67.655 21.4912 67.655 23.9092V26.5442C67.655 28.9622 69.081 28.6212 69.143 29.0552C69.174 29.2412 69.019 29.3652 68.833 29.3652C68.74 29.3652 67.655 29.3342 67.655 29.3342C65.919 29.3652 61.889 29.3652 61.052 29.3652C56.061 29.3652 52 25.4902 52 20.7162C52 15.9422 56.309 12.0982 61.3 12.0982C65.671 12.0982 69.143 14.3612 68.771 16.8722C68.244 20.5612 62.416 20.7162 62.416 17.0272C64.741 17.0272 64.059 13.4622 61.3 13.4622C59.254 13.4622 57.332 16.7172 57.332 20.7162C57.332 25.8622 60.246 27.6602 63.16 27.4122V23.9092C63.129 21.4912 61.703 21.8322 61.641 21.3982C61.61 21.2122 61.796 21.0882 61.951 21.0882C62.137 21.0882 63.935 21.5222 65.392 21.5222C66.88 21.5222 68.647 21.0882 68.833 21.0882C69.019 21.0882 69.174 21.2122 69.143 21.3982ZM74.2483 26.5442C74.2483 28.9622 75.7053 28.6212 75.7673 29.0552C75.7983 29.2412 75.6123 29.3652 75.4263 29.3652C75.0853 29.3652 73.5973 28.9932 72.4813 28.9932C71.3653 28.9932 69.8773 29.3652 69.5053 29.3652C69.3503 29.3652 69.1643 29.2412 69.1953 29.0552C69.2573 28.6212 70.7143 28.9622 70.7143 26.5442V16.2212C70.7143 13.8032 69.1643 13.5552 69.1953 13.1212C69.1953 12.9662 69.3503 12.8422 69.5053 12.8422C70.9933 12.8422 73.1013 11.6332 73.5043 11.1372C73.8453 10.7342 74.2483 10.7962 74.2483 11.2302V26.5442ZM88.1935 29.0552C88.2245 29.2412 88.0385 29.3652 87.8835 29.3652C87.7595 29.3652 84.9385 28.5282 83.1405 29.3652V27.9082C82.5825 28.6522 81.1565 29.3652 79.0175 29.3652C75.5145 29.3652 74.3365 25.3662 78.5215 23.7542C80.1955 23.1032 83.1405 22.7002 83.1405 21.1502C83.1405 19.5692 82.3655 18.2362 80.9085 18.4532C79.2345 18.7322 79.1105 21.2742 80.8155 21.2742C80.8155 23.5062 76.3515 23.8472 76.3515 20.9642C76.3515 18.9492 78.5835 17.2132 81.3425 17.2132C84.5045 17.2132 86.7055 18.5772 86.7055 22.1112V26.5442C86.7055 28.9622 88.1315 28.6212 88.1935 29.0552ZM83.1405 26.3892V23.2892C82.3965 23.9402 79.1415 24.9322 79.6065 26.6372C80.0095 28.2182 81.9625 27.8152 83.1405 26.3892ZM106.362 26.5442C106.362 28.9622 107.788 28.6212 107.881 29.0552C107.881 29.2412 107.726 29.3652 107.54 29.3652C107.168 29.3652 105.711 28.9932 104.595 28.9932C103.479 28.9932 101.991 29.3652 101.619 29.3652C101.464 29.3652 101.278 29.2412 101.309 29.0552C101.371 28.6212 102.828 28.9622 102.828 26.5442V22.6072C102.828 18.7012 100.844 18.3292 99.17 20.5612C99.325 21.1812 99.418 21.8632 99.418 22.6072V26.5442C99.418 28.9622 100.844 28.6212 100.906 29.0552C100.937 29.2412 100.751 29.3652 100.596 29.3652C100.224 29.3652 98.736 28.9932 97.62 28.9932C96.535 28.9932 95.0466 29.3652 94.6746 29.3652C94.4886 29.3652 94.3336 29.2412 94.3646 29.0552C94.4266 28.6212 95.8526 28.9622 95.8526 26.5442V22.6072C95.8526 18.7012 94.0546 18.3912 92.4426 20.4682V26.5442C92.4426 28.9622 93.8996 28.6212 93.9616 29.0552C93.9926 29.2412 93.8066 29.3652 93.6206 29.3652C93.2796 29.3652 91.7916 28.9932 90.6756 28.9932C89.5596 28.9932 88.0716 29.3652 87.6996 29.3652C87.5446 29.3652 87.3586 29.2412 87.3896 29.0552C87.4516 28.6212 88.9086 28.9622 88.9086 26.5442V22.5762C88.9086 20.1272 87.3586 19.9102 87.3896 19.4762C87.3896 19.3212 87.5446 19.1972 87.6996 19.1972C89.1876 19.1972 91.2956 17.9882 91.6986 17.4922C92.0706 17.0582 92.4426 17.1512 92.4426 17.5542V19.0422C92.4426 19.0422 93.9616 17.2132 95.5116 17.2132C96.938 17.2132 98.116 18.0502 98.798 19.5072C99.201 19.0112 100.72 17.2132 102.456 17.2132C104.874 17.2132 106.362 19.2592 106.362 22.6072V26.5442ZM113.876 17.2132C117.379 17.2132 120.231 19.9412 120.231 23.2892C120.231 26.6372 117.379 29.3652 113.876 29.3652C110.373 29.3652 107.521 26.6372 107.521 23.2892C107.521 19.9412 110.373 17.2132 113.876 17.2132ZM113.876 28.0012C115.271 28.0012 116.139 25.8932 116.139 23.2892C116.139 20.6852 115.271 18.5772 113.876 18.5772C112.481 18.5772 111.613 20.6852 111.613 23.2892C111.613 25.8932 112.481 28.0012 113.876 28.0012ZM124.714 26.5442C124.714 28.9622 126.171 28.6212 126.233 29.0552C126.264 29.2412 126.078 29.3652 125.892 29.3652C125.551 29.3652 124.063 28.9932 122.947 28.9932C121.831 28.9932 120.343 29.3652 119.971 29.3652C119.816 29.3652 119.63 29.2412 119.661 29.0552C119.723 28.6212 121.18 28.9622 121.18 26.5442V16.2212C121.18 13.8032 119.63 13.5552 119.661 13.1212C119.661 12.9662 119.816 12.8422 119.971 12.8422C121.459 12.8422 123.567 11.6332 123.97 11.1372C124.311 10.7342 124.714 10.7962 124.714 11.2302V26.5442ZM132.552 29.3652C132.211 29.3652 130.723 28.9932 129.607 28.9932C128.491 28.9932 127.003 29.3652 126.631 29.3652C126.476 29.3652 126.29 29.2412 126.321 29.0552C126.383 28.6212 127.84 28.9622 127.84 26.5442V22.5762C127.84 20.1272 126.29 19.9102 126.321 19.4762C126.321 19.3212 126.476 19.1972 126.631 19.1972C128.119 19.1972 130.227 17.9882 130.63 17.4922C131.002 17.0582 131.374 17.1512 131.374 17.5542V26.5442C131.374 28.9622 132.831 28.6212 132.893 29.0552C132.924 29.2412 132.738 29.3652 132.552 29.3652ZM129.576 16.6242C128.522 16.6242 127.654 15.7562 127.654 14.7022C127.654 13.6172 128.522 12.7492 129.576 12.7492C130.661 12.7492 131.529 13.6172 131.529 14.7022C131.529 15.7562 130.661 16.6242 129.576 16.6242ZM144.02 25.9552C144.423 25.5522 145.043 25.6142 144.795 26.0792C143.803 27.9082 141.509 29.3652 139.246 29.3652C135.743 29.3652 132.891 26.6372 132.891 23.2892C132.891 19.9412 135.743 17.2132 139.246 17.2132C142.78 17.2132 145.353 19.8172 144.454 22.4832C143.741 24.4982 139.525 25.6452 139.525 21.9872C141.664 22.3902 141.819 18.8252 139.835 18.6702C138.068 18.5462 136.983 20.6852 136.983 23.2892C136.983 28.4042 142.222 27.8462 144.02 25.9552ZM167.574 26.5442C168.535 28.9622 169.868 28.4972 170.116 28.9622C170.209 29.1172 170.054 29.3652 169.868 29.3652C169.682 29.3652 167.419 28.9312 165.931 28.9312C164.443 28.9312 162.831 29.3652 162.645 29.3652C162.428 29.3652 162.242 29.2722 162.273 29.0862C162.335 28.6832 163.699 28.9622 162.738 26.5442L161.901 24.4052H154.74C154.058 26.2342 154.833 28.1872 155.98 28.8382C156.259 28.9932 156.104 29.3652 155.763 29.3652C155.67 29.3652 154.058 28.9312 152.88 28.9312C151.888 28.9312 150.245 29.3652 150.152 29.3652C149.997 29.3652 149.873 29.1482 149.966 28.9622C150.214 28.4972 151.516 28.8692 152.477 26.4512L157.065 14.8882C158.026 12.4702 156.414 12.9042 156.569 12.3772C156.6 12.1912 156.817 12.0982 157.003 12.0982C157.096 12.0982 158.646 12.4392 159.948 12.4392C161.219 12.4392 162.924 12.0982 163.048 12.0982C163.234 12.0982 163.389 12.1602 163.42 12.2842C163.606 12.8732 161.994 12.4702 162.955 14.8882L167.574 26.5442ZM155.298 23.0412H161.343L158.336 15.4152L155.298 23.0412ZM177.66 12.3772C177.567 12.8422 176.141 12.4702 176.141 14.8882V26.5442C176.141 28.9622 177.567 28.6212 177.66 29.0552C177.66 29.2412 177.505 29.3652 177.319 29.3652C177.133 29.3652 175.366 28.9312 173.878 28.9312C172.39 28.9312 170.623 29.3652 170.437 29.3652C170.282 29.3652 170.096 29.2412 170.127 29.0552C170.189 28.6212 171.646 28.9622 171.646 26.5442V14.8882C171.646 12.4702 170.189 12.8422 170.127 12.3772C170.096 12.1912 170.282 12.0982 170.437 12.0982C170.623 12.0982 172.421 12.5012 173.878 12.5012C175.366 12.5012 177.133 12.0982 177.319 12.0982C177.505 12.0982 177.66 12.1912 177.66 12.3772Z" fill="#072032"/>
<mask id="mask0_4503_1212" style="mask-type:luminance" maskUnits="userSpaceOnUse" x="0" y="0" width="43" height="42">
<path d="M42.913 0H0V42H42.913V0Z" fill="white"/>
</mask>
<g mask="url(#mask0_4503_1212)">
<mask id="mask1_4503_1212" style="mask-type:luminance" maskUnits="userSpaceOnUse" x="0" y="0" width="43" height="42">
<path d="M42.8464 0H0V41.9867H42.8464V0Z" fill="white"/>
</mask>
<g mask="url(#mask1_4503_1212)">
<path d="M17.165 23.0933C17.165 21.36 17.165 19.7067 17.165 18C25.6676 18 34.1436 18 42.6063 18C44.0323 26.6934 38.7281 37.8 27.3202 41.12C15.4858 44.5866 3.19826 37.28 0.519526 25.16C-2.14588 13.0533 5.75705 2.61333 15.4058 0C15.4191 0.226667 15.4325 0.44 15.4325 0.653334C15.4325 10.08 15.4325 19.4933 15.4325 28.92C15.4325 31.68 16.9918 33.9733 19.5239 34.7733C21.8961 35.52 24.0417 35.0266 25.7476 33.2C27.4934 31.3467 27.8932 29.12 26.907 26.7734C25.9075 24.4 24.0017 23.1866 21.4429 23.1067C20.2702 23.0667 19.0841 23.0933 17.9113 23.0933C17.6848 23.0933 17.4448 23.0933 17.165 23.0933ZM13.7266 2.44C5.59713 5.68 -0.706561 15.6133 2.63852 26.4C5.74372 36.4267 16.2588 42.36 26.5606 39.5333C37.1155 36.6533 41.7267 26.6666 41.0071 19.72C33.6505 19.72 26.2807 19.72 18.8575 19.72C18.8575 20.1067 18.8841 20.4667 18.8575 20.8134C18.8176 21.2667 19.0041 21.4 19.4306 21.3867C20.1902 21.36 20.9366 21.3733 21.6962 21.3867C25.7342 21.48 28.9727 24.7467 29.1593 28.88C29.3326 32.7467 26.2807 36.3066 22.3759 36.76C17.7114 37.3067 13.74 33.7466 13.7266 28.9733C13.7133 20.44 13.7266 11.9066 13.7266 3.37333C13.7266 3.09334 13.7266 2.81333 13.7266 2.44Z" fill="#527475"/>
<path d="M13.7263 2.43994C13.7263 2.81328 13.7263 3.09328 13.7263 3.37328C13.7263 11.9066 13.713 20.44 13.7263 28.9733C13.7396 33.7466 17.6978 37.3066 22.3756 36.76C26.267 36.3066 29.3322 32.7466 29.159 28.88C28.9724 24.7333 25.7339 21.4799 21.6959 21.3866C20.9362 21.3733 20.1899 21.3599 19.4303 21.3866C19.0038 21.3999 18.8173 21.2666 18.8572 20.8133C18.8838 20.4666 18.8572 20.1066 18.8572 19.7199C26.2937 19.7199 33.6502 19.7199 41.0068 19.7199C41.7264 26.68 37.1152 36.6532 26.5602 39.5333C16.2451 42.3599 5.74339 36.4266 2.63819 26.3999C-0.706894 15.6132 5.59679 5.67994 13.7263 2.43994Z" fill="#527475"/>
<path d="M30.1609 2.25586C30.4369 2.25586 30.6607 2.47971 30.6607 2.75586C30.6607 4.09324 31.3341 5.47247 32.3885 6.5273C33.4429 7.58213 34.8215 8.25586 36.1581 8.25586C36.4342 8.25586 36.6579 8.47972 36.6579 8.75586C36.6579 9.03199 36.4342 9.25583 36.1581 9.25583C34.8215 9.25583 33.4429 9.92956 32.3885 10.9844C31.3341 12.0392 30.6607 13.4184 30.6607 14.7559C30.6607 15.032 30.4369 15.2559 30.1609 15.2559C29.8849 15.2559 29.6612 15.032 29.6612 14.7559C29.6612 13.4184 28.9877 12.0392 27.9335 10.9844C26.8792 9.92956 25.5007 9.25583 24.1638 9.25583C23.8878 9.25583 23.6641 9.03199 23.6641 8.75586C23.6641 8.47972 23.8878 8.25586 24.1638 8.25586C25.5007 8.25586 26.8792 7.58213 27.9335 6.5273C28.9877 5.47247 29.6612 4.09324 29.6612 2.75586C29.6612 2.47971 29.8849 2.25586 30.1609 2.25586Z" fill="#527475"/>
<path d="M34.9962 1.58887C35.1386 1.58887 35.2618 1.68749 35.2931 1.82634L35.4491 2.51954C35.5558 2.99287 35.9252 3.36251 36.3983 3.46913L37.0911 3.6253C37.23 3.65656 37.3285 3.77989 37.3285 3.9222C37.3285 4.06452 37.23 4.18783 37.0911 4.21911L36.3983 4.37526C35.9252 4.48188 35.5558 4.85153 35.4491 5.32486L35.2931 6.01807C35.2618 6.15692 35.1386 6.25554 34.9962 6.25554C34.8541 6.25554 34.7308 6.15692 34.6995 6.01807L34.5435 5.32486C34.4369 4.85153 34.0674 4.48188 33.5943 4.37526L32.9015 4.21911C32.7627 4.18783 32.6641 4.06452 32.6641 3.9222C32.6641 3.77989 32.7627 3.65656 32.9015 3.6253L33.5943 3.46913C34.0674 3.36251 34.4369 2.99288 34.5435 2.51954L34.6995 1.82634C34.7308 1.68749 34.8541 1.58887 34.9962 1.58887Z" fill="#527475"/>
</g>
</g>
</svg>
