<svg width="24" height="21" viewBox="0 0 24 21" fill="none" xmlns="http://www.w3.org/2000/svg">
<path fillRule="evenodd" clipRule="evenodd" d="M10.4041 20.8082C4.66502 20.8082 0 16.1427 0 10.4041C0 4.66557 4.66502 0 10.4041 0C13.0356 0 15.5054 0.955593 17.4293 2.71951C16.7881 3.09973 16.1699 3.51754 15.5779 3.97075C14.1133 2.78788 12.2868 2.14405 10.4041 2.14704C5.85591 2.14704 2.14704 5.85591 2.14704 10.4041C2.14704 14.9523 5.85591 18.6606 10.4041 18.6606C16.7323 18.6606 20.4893 11.8962 17.7676 6.63711C18.303 6.13905 18.8575 5.66182 19.4297 5.20649C20.3404 6.77884 20.8082 8.56213 20.8082 10.4036C20.8082 16.1427 16.1432 20.8082 10.4041 20.8082Z" fill="#527475"/>
<path fillRule="evenodd" clipRule="evenodd" d="M10.6765 15.7523C10.6215 15.7515 10.568 15.7344 10.5228 15.7031C10.4776 15.6719 10.4426 15.6279 10.4224 15.5768C10.403 15.5381 8.72432 11.2041 6.12827 9.56424C5.62058 9.25198 5.23026 8.92035 5.38639 8.17846C5.54252 7.45651 6.03028 7.04626 6.90891 6.85137C8.4702 6.51919 10.1494 8.93972 10.7734 9.93518C12.9603 6.75393 17.3324 1.75672 23.696 1.17097C24.0027 1.13498 24.1168 1.59008 23.8328 1.71741C23.7353 1.75617 14.6389 5.91405 10.9494 15.5962C10.9218 15.6441 10.882 15.6838 10.8341 15.7112C10.7861 15.7386 10.7317 15.7528 10.6765 15.7523Z" fill="#527475"/>
</svg>
