<svg width="22" height="22" viewBox="0 0 22 22" fill="none" xmlns="http://www.w3.org/2000/svg">
<path fill-rule="evenodd" clip-rule="evenodd" d="M10.5539 8.653C10.0861 8.42117 9.53682 8.42117 9.06898 8.653C8.81905 8.77685 8.55179 9.04522 8.34066 9.25729C8.12859 9.46839 7.86023 9.7357 7.73638 9.98558C7.50454 10.4534 7.50454 11.0027 7.73638 11.4705C7.86023 11.7205 8.07411 11.9334 8.28618 12.1445L8.34066 12.1989L16.2721 20.1304C16.4832 20.3425 16.6962 20.5564 16.9461 20.6802C17.4139 20.9121 17.9632 20.9121 18.4311 20.6802C18.6809 20.5564 18.9482 20.2881 19.1593 20.076C19.3715 19.8649 19.6398 19.5976 19.7636 19.3477C19.9954 18.8798 19.9954 18.3305 19.7636 17.8628C19.6398 17.6128 19.4259 17.3999 19.2138 17.1887L11.2822 9.25729L11.2279 9.20284C11.0168 8.99074 10.8038 8.77685 10.5539 8.653ZM9.31416 10.2299C9.45386 10.0902 9.53865 10.0057 9.60603 9.94561C9.6734 9.87521 9.85041 9.77667 10.0194 9.94561C10.0866 10.0057 10.1714 10.0902 10.3112 10.2299L11.7943 11.713L10.7973 12.7101L9.31416 11.2269C9.17446 11.0872 9.09002 11.0024 9.0299 10.9351C8.86256 10.7677 8.96017 10.5898 9.0299 10.5217C9.09002 10.4545 9.17446 10.3696 9.31416 10.2299Z" fill="white"/>
<path d="M15.5807 1.146C15.8684 1.146 16.1257 1.32511 16.2255 1.59491L16.4957 2.32513C16.8719 3.34163 16.9998 3.64514 17.2178 3.86311C17.4358 4.08106 17.7393 4.20905 18.7558 4.58518L19.486 4.85539C19.7558 4.95522 19.9349 5.21249 19.9349 5.50016C19.9349 5.78784 19.7558 6.0451 19.486 6.14494L18.7558 6.41514C17.7393 6.79129 17.4358 6.91926 17.2178 7.13722C16.9998 7.35518 16.8719 7.65869 16.4957 8.6752L16.2255 9.40544C16.1257 9.67521 15.8684 9.85433 15.5807 9.85433C15.2931 9.85433 15.0358 9.67521 14.9359 9.40544L14.6657 8.6752C14.2896 7.65869 14.1616 7.35518 13.9437 7.13722C13.7257 6.91926 13.4222 6.79129 12.4057 6.41514L11.6755 6.14494C11.4057 6.0451 11.2266 5.78784 11.2266 5.50016C11.2266 5.21249 11.4057 4.95522 11.6755 4.85539L12.4057 4.58518C13.4222 4.20905 13.7257 4.08106 13.9437 3.86311C14.1616 3.64514 14.2896 3.34163 14.6657 2.32513L14.9359 1.59491C15.0358 1.32511 15.2931 1.146 15.5807 1.146Z" fill="white"/>
<path d="M5.5 2.97913C5.78768 2.97913 6.04494 3.15824 6.14477 3.42804L6.34743 3.9757C6.63499 4.75283 6.71868 4.93665 6.84933 5.0673C6.97998 5.19795 7.1638 5.28164 7.94093 5.5692L8.48859 5.77185C8.75838 5.87169 8.9375 6.12895 8.9375 6.41663C8.9375 6.7043 8.75838 6.96157 8.48859 7.0614L7.94092 7.26406C7.1638 7.55162 6.97998 7.63531 6.84932 7.76596C6.71868 7.8966 6.63499 8.08042 6.34743 8.85755L6.14477 9.40523C6.04494 9.67501 5.78768 9.85413 5.5 9.85413C5.21232 9.85413 4.95506 9.67501 4.85523 9.40523L4.65257 8.85755C4.36501 8.08042 4.28132 7.8966 4.15067 7.76596C4.02002 7.63531 3.8362 7.55162 3.05907 7.26406L2.51141 7.0614C2.24162 6.96157 2.0625 6.7043 2.0625 6.41663C2.0625 6.12895 2.24162 5.87169 2.51141 5.77185L3.05907 5.5692C3.8362 5.28164 4.02002 5.19795 4.15067 5.06729C4.28132 4.93665 4.36501 4.75283 4.65257 3.9757L4.85523 3.42804C4.95506 3.15824 5.21232 2.97913 5.5 2.97913Z" fill="white"/>
</svg>
