<svg width="20" height="20" viewBox="0 0 20 20" fill="none" xmlns="http://www.w3.org/2000/svg">
<path d="M18.1726 8.36824H17.5013V8.33366H10.0013V11.667H14.7109C14.0238 13.6074 12.1776 15.0003 10.0013 15.0003C7.24005 15.0003 5.0013 12.7616 5.0013 10.0003C5.0013 7.23908 7.24005 5.00033 10.0013 5.00033C11.2759 5.00033 12.4355 5.48116 13.3184 6.26658L15.6755 3.90949C14.1871 2.52241 12.1963 1.66699 10.0013 1.66699C5.39922 1.66699 1.66797 5.39824 1.66797 10.0003C1.66797 14.6024 5.39922 18.3337 10.0013 18.3337C14.6034 18.3337 18.3346 14.6024 18.3346 10.0003C18.3346 9.44158 18.2771 8.89616 18.1726 8.36824Z" fill="#FFC107"/>
<path d="M2.62891 6.12158L5.36682 8.12949C6.10766 6.29533 7.90182 5.00033 10.0014 5.00033C11.276 5.00033 12.4356 5.48116 13.3185 6.26658L15.6756 3.90949C14.1872 2.52241 12.1964 1.66699 10.0014 1.66699C6.80057 1.66699 4.02474 3.47408 2.62891 6.12158Z" fill="#FF3D00"/>
<path d="M10.0008 18.3336C12.1533 18.3336 14.1091 17.5099 15.5879 16.1703L13.0087 13.9878C12.1439 14.6454 11.0872 15.0011 10.0008 15.0003C7.83328 15.0003 5.99286 13.6182 5.29953 11.6895L2.58203 13.7832C3.9612 16.482 6.76203 18.3336 10.0008 18.3336Z" fill="#4CAF50"/>
<path d="M18.1712 8.36784H17.5V8.33325H10V11.6666H14.7096C14.3809 12.5901 13.7889 13.3971 13.0067 13.9878L13.0079 13.987L15.5871 16.1695C15.4046 16.3353 18.3333 14.1666 18.3333 9.99992C18.3333 9.44117 18.2758 8.89575 18.1712 8.36784Z" fill="#1976D2"/>
</svg>
