<svg width="36" height="36" viewBox="0 0 36 36" fill="none" xmlns="http://www.w3.org/2000/svg">
<path d="M31.3667 16.6797V10.0947C31.3667 8.86474 30.4367 7.46974 29.2817 7.00474L20.9267 3.58474C19.0517 2.81974 16.9367 2.81974 15.0617 3.58474L6.70672 7.00474C5.56672 7.46974 4.63672 8.86474 4.63672 10.0947V16.6797C4.63672 24.0147 9.96172 30.8847 17.2367 32.8947C17.7317 33.0297 18.2717 33.0297 18.7667 32.8947C26.0417 30.8847 31.3667 24.0147 31.3667 16.6797ZM19.1267 19.3047V23.2497C19.1267 23.8647 18.6167 24.3747 18.0017 24.3747C17.3867 24.3747 16.8767 23.8647 16.8767 23.2497V19.3047C15.3617 18.8247 14.2517 17.4147 14.2517 15.7497C14.2517 13.6797 15.9317 11.9997 18.0017 11.9997C20.0717 11.9997 21.7517 13.6797 21.7517 15.7497C21.7517 17.4297 20.6417 18.8247 19.1267 19.3047Z" fill="#527475"/>
</svg>
