<svg width="36" height="36" viewBox="0 0 36 36" fill="none" xmlns="http://www.w3.org/2000/svg">
<g clip-path="url(#clip0_4656_789)">
<path d="M3.57634 12.8717H1.52545C0.958648 12.8717 0.5 13.3304 0.5 13.8972C0.5 14.464 0.958648 14.9226 1.52545 14.9226H3.57634C4.14314 14.9226 4.60179 14.464 4.60179 13.8972C4.60179 13.3304 4.14314 12.8717 3.57634 12.8717ZM4.06931 7.74448L2.61926 6.2945C2.21872 5.89396 1.56975 5.89396 1.16921 6.2945C0.768667 6.69504 0.768667 7.34401 1.16921 7.74455L2.61926 9.19453C3.01987 9.59514 3.6687 9.59514 4.06931 9.19453C4.46985 8.79399 4.46985 8.14502 4.06931 7.74448ZM4.06931 18.5999C3.66877 18.1993 3.0198 18.1993 2.61926 18.5999L1.16921 20.0499C0.768667 20.4505 0.768667 21.0994 1.16921 21.5C1.56982 21.9006 2.21865 21.9006 2.61926 21.5L4.06931 20.0499C4.46985 19.6494 4.46985 19.0004 4.06931 18.5999ZM34.4765 12.8717H32.4256C31.8588 12.8717 31.4002 13.3304 31.4002 13.8972C31.4002 14.464 31.8588 14.9226 32.4256 14.9226H34.4765C35.0433 14.9226 35.5019 14.464 35.5019 13.8972C35.5019 13.3304 35.0433 12.8717 34.4765 12.8717ZM34.8327 6.29443C34.4322 5.89389 33.7832 5.89389 33.3827 6.29443L31.9326 7.74448C31.5321 8.14502 31.5321 8.79399 31.9326 9.19453C32.3332 9.59514 32.9821 9.59514 33.3827 9.19453L34.8327 7.74448C35.2333 7.34394 35.2333 6.69497 34.8327 6.29443ZM34.8327 20.0499L33.3827 18.5999C32.9821 18.1993 32.3332 18.1993 31.9326 18.5999C31.5321 19.0004 31.5321 19.6494 31.9326 20.0499L33.3827 21.4999C33.7833 21.9005 34.4321 21.9005 34.8327 21.4999C35.2333 21.0994 35.2333 20.4504 34.8327 20.0499ZM25.7569 3.24988C22.8648 0.898595 19.0705 -0.00666964 15.3583 0.77438C10.7297 1.74076 6.96039 5.56643 5.97903 10.193C5.14487 14.1295 6.17428 18.0811 8.80202 21.0353C9.86439 22.2308 10.5125 23.6736 10.725 25.1772H13.8992V15.9481C13.8992 15.551 16.9061 9.69194 17.0837 9.3368C17.4322 8.64182 18.5698 8.64182 18.9183 9.3368C19.1043 9.70883 22.1028 15.5709 22.1028 15.9481V25.1772H25.2805C25.5003 23.6808 26.1674 22.215 27.26 20.9682C29.2243 18.7285 30.3071 15.8508 30.3063 12.8717C30.3063 9.14948 28.648 5.59918 25.7569 3.24988Z" fill="white"/>
<path d="M17.9984 17.9086C17.3051 17.9086 16.6145 17.7878 15.9476 17.5673V25.1769H20.0493V17.5673C19.3824 17.7878 18.6918 17.9086 17.9984 17.9086ZM10.8203 27.2278V28.2533C10.8203 29.9496 12.2003 31.3296 13.8967 31.3296H22.1002C23.7966 31.3296 25.1766 29.9496 25.1766 28.2533V27.2278H10.8203ZM17.9984 12.0884L16.3038 15.4777C17.399 15.9264 18.5979 15.9264 19.6931 15.4777L17.9984 12.0884ZM13.0601 33.3805C13.4848 34.5715 14.6124 35.4998 15.9476 35.4998H20.0493C21.3845 35.4998 22.5121 34.5715 22.9368 33.3805H13.0601Z" fill="white"/>
</g>
<defs>
<clipPath id="clip0_4656_789">
<rect width="36" height="36" fill="white"/>
</clipPath>
</defs>
</svg>
