<svg width="36" height="36" viewBox="0 0 36 36" fill="none" xmlns="http://www.w3.org/2000/svg">
<path d="M19.125 23.8797H20.1C21.075 23.8797 21.885 23.0097 21.885 21.9597C21.885 20.6547 21.42 20.3997 20.655 20.1297L19.14 19.6047V23.8797H19.125Z" fill="white"/>
<path d="M17.9551 2.84988C9.6751 2.87988 2.9701 9.61488 3.0001 17.8949C3.0301 26.1749 9.7651 32.8799 18.0451 32.8499C26.3251 32.8199 33.0301 26.0849 33.0001 17.8049C32.9701 9.52488 26.2351 2.83488 17.9551 2.84988ZM21.3901 17.9999C22.5601 18.4049 24.1351 19.2749 24.1351 21.9599C24.1351 24.2699 22.3201 26.1299 20.1001 26.1299H19.1251V26.9999C19.1251 27.6149 18.6151 28.1249 18.0001 28.1249C17.3851 28.1249 16.8751 27.6149 16.8751 26.9999V26.1299H16.3351C13.8751 26.1299 11.8801 24.0599 11.8801 21.5099C11.8801 20.8949 12.3901 20.3849 13.0051 20.3849C13.6201 20.3849 14.1301 20.8949 14.1301 21.5099C14.1301 22.8149 15.1201 23.8799 16.3351 23.8799H16.8751V18.8099L14.6101 17.9999C13.4401 17.5949 11.8651 16.7249 11.8651 14.0399C11.8651 11.7299 13.6801 9.86988 15.9001 9.86988H16.8751V8.99988C16.8751 8.38488 17.3851 7.87488 18.0001 7.87488C18.6151 7.87488 19.1251 8.38488 19.1251 8.99988V9.86988H19.6651C22.1251 9.86988 24.1201 11.9399 24.1201 14.4899C24.1201 15.1049 23.6101 15.6149 22.9951 15.6149C22.3801 15.6149 21.8701 15.1049 21.8701 14.4899C21.8701 13.1849 20.8801 12.1199 19.6651 12.1199H19.1251V17.1899L21.3901 17.9999Z" fill="white"/>
<path d="M14.1328 14.0551C14.1328 15.3601 14.5978 15.6151 15.3628 15.8851L16.8778 16.4101V12.1201H15.9028C14.9278 12.1201 14.1328 12.9901 14.1328 14.0551Z" fill="white"/>
</svg>
