<svg width="36" height="36" viewBox="0 0 36 36" fill="none" xmlns="http://www.w3.org/2000/svg">
<path d="M14.5333 5H7.6C6.16406 5 5 6.16406 5 7.6V19.7333C5 21.1693 6.16406 22.3333 7.6 22.3333H14.5333C15.9693 22.3333 17.1333 21.1693 17.1333 19.7333V7.6C17.1333 6.16406 15.9693 5 14.5333 5Z" fill="white"/>
<path d="M14.5333 24.0667H7.6C6.16406 24.0667 5 25.2307 5 26.6667V28.4C5 29.8359 6.16406 31 7.6 31H14.5333C15.9693 31 17.1333 29.8359 17.1333 28.4V26.6667C17.1333 25.2307 15.9693 24.0667 14.5333 24.0667Z" fill="white"/>
<path d="M28.4005 13.6667H21.4672C20.0312 13.6667 18.8672 14.8308 18.8672 16.2667V28.4001C18.8672 29.836 20.0312 31.0001 21.4672 31.0001H28.4005C29.8365 31.0001 31.0005 29.836 31.0005 28.4001V16.2667C31.0005 14.8308 29.8365 13.6667 28.4005 13.6667Z" fill="white"/>
<path d="M28.4005 5H21.4672C20.0312 5 18.8672 6.16406 18.8672 7.6V9.33333C18.8672 10.7693 20.0312 11.9333 21.4672 11.9333H28.4005C29.8365 11.9333 31.0005 10.7693 31.0005 9.33333V7.6C31.0005 6.16406 29.8365 5 28.4005 5Z" fill="white"/>
</svg>
