<svg width="36" height="36" viewBox="0 0 36 36" fill="none" xmlns="http://www.w3.org/2000/svg">
<path d="M14.4201 35.9146C14.8963 36.1181 15.45 35.9482 15.7281 35.5088L28.3844 15.3994C28.4852 15.2398 28.5413 15.0562 28.5469 14.8675C28.5525 14.6789 28.5074 14.4922 28.4163 14.3269C28.3251 14.1617 28.1914 14.0239 28.0289 13.9279C27.8664 13.8319 27.6811 13.7813 27.4924 13.7813H19.0456L22.1871 1.31426C22.3138 0.810614 22.0573 0.290442 21.5804 0.0854814C21.1066 -0.118425 20.5494 0.0525049 20.2723 0.491255L7.61605 20.6006C7.5153 20.7602 7.45919 20.9439 7.45359 21.1325C7.44799 21.3211 7.49309 21.5078 7.58419 21.6731C7.6753 21.8384 7.80907 21.9762 7.97156 22.0721C8.13406 22.1681 8.31932 22.2187 8.50804 22.2187H16.9548L13.8134 34.6858C13.6867 35.1895 13.9431 35.7096 14.4201 35.9146Z" fill="#527475"/>
</svg>
