<svg width="36" height="36" viewBox="0 0 36 36" fill="none" xmlns="http://www.w3.org/2000/svg">
<path d="M0.5 19.875C12.1381 22.5063 13 34.25 13 34.25C13 34.25 13.8619 22.5063 25.5 19.875C13.8619 17.2437 13 5.5 13 5.5C13 5.5 12.1381 17.2437 0.5 19.875ZM21.75 28C28.1506 29.375 28.625 35.5 28.625 35.5C28.625 35.5 29.0994 29.375 35.5 28C29.0994 26.625 28.625 20.5 28.625 20.5C28.625 20.5 28.1506 26.625 21.75 28ZM17.375 8C23.7756 9.375 24.25 15.5 24.25 15.5C24.25 15.5 24.7244 9.375 31.125 8C24.7244 6.625 24.25 0.5 24.25 0.5C24.25 0.5 23.7756 6.625 17.375 8Z" fill="#527475"/>
</svg>
