<svg width="24" height="24" viewBox="0 0 24 24" fill="none" xmlns="http://www.w3.org/2000/svg">
<path fill-rule="evenodd" clip-rule="evenodd" d="M11.5133 9.4398C11.003 9.18689 10.4038 9.18689 9.89343 9.4398C9.62078 9.57491 9.32922 9.86767 9.0989 10.099C8.86755 10.3293 8.57479 10.6209 8.43968 10.8935C8.18677 11.4039 8.18677 12.0031 8.43968 12.5134C8.57479 12.7861 8.80812 13.0184 9.03947 13.2487L9.0989 13.308L17.7514 21.9606C17.9817 22.192 18.214 22.4253 18.4867 22.5604C18.997 22.8133 19.5962 22.8133 20.1066 22.5604C20.3792 22.4253 20.6708 22.1326 20.9011 21.9012C21.1325 21.6709 21.4252 21.3793 21.5603 21.1067C21.8132 20.5963 21.8132 19.9971 21.5603 19.4868C21.4252 19.2141 21.1919 18.9818 20.9605 18.7515L12.3079 10.099L12.2486 10.0396C12.0183 9.80824 11.786 9.57491 11.5133 9.4398ZM10.1609 11.16C10.3133 11.0076 10.4058 10.9155 10.4793 10.8499C10.5528 10.7731 10.7459 10.6656 10.9302 10.8499C11.0036 10.9155 11.0961 11.0076 11.2486 11.16L12.8665 12.778L11.7789 13.8657L10.1609 12.2477C10.0085 12.0953 9.91638 12.0028 9.8508 11.9293C9.66824 11.7467 9.77473 11.5526 9.8508 11.4784C9.91638 11.405 10.0085 11.3124 10.1609 11.16Z" fill="#3F4153"/>
<path d="M16.9961 1.25024C17.3099 1.25024 17.5906 1.44564 17.6995 1.73996L17.9943 2.53657C18.4046 3.64548 18.5442 3.97658 18.782 4.21436C19.0198 4.45213 19.3509 4.59175 20.4598 5.00208L21.2564 5.29685C21.5507 5.40576 21.7461 5.68641 21.7461 6.00024C21.7461 6.31407 21.5507 6.59472 21.2564 6.70363L20.4598 6.9984C19.3509 7.40874 19.0198 7.54835 18.782 7.78612C18.5442 8.0239 18.4046 8.355 17.9943 9.46392L17.6995 10.2605C17.5906 10.5548 17.3099 10.7502 16.9961 10.7502C16.6823 10.7502 16.4016 10.5548 16.2927 10.2605L15.9979 9.46392C15.5876 8.355 15.448 8.0239 15.2102 7.78612C14.9724 7.54835 14.6413 7.40874 13.5324 6.9984L12.7358 6.70363C12.4415 6.59472 12.2461 6.31407 12.2461 6.00024C12.2461 5.68641 12.4415 5.40576 12.7358 5.29685L13.5324 5.00208C14.6413 4.59175 14.9724 4.45213 15.2102 4.21436C15.448 3.97658 15.5876 3.64548 15.9979 2.53657L16.2927 1.73996C16.4016 1.44564 16.6823 1.25024 16.9961 1.25024Z" fill="#3F4153"/>
<path d="M6 3.25012C6.31383 3.25012 6.59448 3.44552 6.70339 3.73984L6.92447 4.33729C7.23817 5.18507 7.32947 5.3856 7.472 5.52813C7.61452 5.67065 7.81505 5.76195 8.66283 6.07565L9.26028 6.29673C9.5546 6.40564 9.75 6.68629 9.75 7.00012C9.75 7.31395 9.5546 7.5946 9.26028 7.70351L8.66282 7.92459C7.81505 8.23829 7.61452 8.32959 7.47199 8.47212C7.32947 8.61464 7.23817 8.81517 6.92447 9.66295L6.70339 10.2604C6.59448 10.5547 6.31383 10.7501 6 10.7501C5.68617 10.7501 5.40552 10.5547 5.29661 10.2604L5.07553 9.66295C4.76183 8.81517 4.67053 8.61464 4.528 8.47212C4.38548 8.32959 4.18495 8.23829 3.33717 7.92459L2.73972 7.70351C2.4454 7.5946 2.25 7.31395 2.25 7.00012C2.25 6.68629 2.4454 6.40564 2.73972 6.29673L3.33717 6.07565C4.18495 5.76195 4.38548 5.67065 4.528 5.52812C4.67053 5.3856 4.76183 5.18507 5.07553 4.33729L5.29661 3.73984C5.40552 3.44552 5.68617 3.25012 6 3.25012Z" fill="#3F4153"/>
</svg>
