<svg width="1896" height="275" viewBox="0 0 1896 275" fill="none" xmlns="http://www.w3.org/2000/svg">
<path opacity="0.07" d="M136.071 264.585C116.417 264.585 98.2736 261.183 81.6426 254.379C65.2635 247.324 50.9003 237.622 38.553 225.275C26.4577 212.928 17.0083 198.565 10.2047 182.185C3.40106 165.554 -0.000741979 147.663 -0.000741979 128.513C-0.000741979 104.322 5.16496 82.5252 15.4964 63.1223C25.8278 43.7194 40.3169 28.3483 58.9639 17.0089C77.8628 5.66961 99.7855 -6.00766e-05 124.732 -6.00766e-05C148.419 -6.00766e-05 167.822 3.14976 182.941 9.44939C198.06 15.497 209.147 22.5526 216.203 30.6162C221.243 36.9158 224.14 45.1053 224.896 55.1848C225.652 65.2642 226.03 74.5876 226.03 83.1552H214.691C209.903 59.9725 201.084 43.2154 188.232 32.884C175.381 22.3006 157.994 17.0089 136.071 17.0089C120.952 17.0089 108.101 20.0328 97.5176 26.0804C87.1862 32.1281 78.6187 40.4436 71.8151 51.027C65.2635 61.6104 60.4758 73.5797 57.452 86.9349C54.4281 100.29 52.9162 114.149 52.9162 128.513C52.9162 159.003 56.57 183.067 63.8776 200.706C71.4371 218.345 81.5166 230.945 94.1158 238.504C106.715 245.812 120.7 249.466 136.071 249.466C147.411 249.466 157.112 248.584 165.176 246.82C173.239 245.056 180.547 242.662 187.098 239.638V172.358C187.098 167.066 187.854 161.775 189.366 156.483C191.13 151.191 194.532 146.278 199.572 141.742C204.611 136.954 211.919 133.174 221.495 130.402C231.322 127.631 244.299 126.245 260.426 126.245V135.694C251.859 135.694 245.685 138.844 241.905 145.144C238.126 151.443 236.236 160.263 236.236 171.602V239.26C221.621 248.08 206.123 254.505 189.744 258.537C173.365 262.569 155.474 264.585 136.071 264.585ZM300.256 257.025V56.6967C300.256 45.3573 298.618 36.2858 295.342 29.4822C292.318 22.4266 285.137 18.8988 273.797 18.8988H270.017V7.5595H315.375C324.194 7.5595 330.998 9.07141 335.786 12.0952C340.825 15.1191 344.353 20.1588 346.369 27.2144C348.385 34.27 349.393 44.0974 349.393 56.6967V240.016H479.795V257.025H300.256ZM717.284 258.537C708.968 258.537 700.149 257.529 690.825 255.513C681.754 253.245 672.934 248.584 664.367 241.528C656.051 234.472 648.87 223.763 642.822 209.4L634.129 188.233H533.586L502.592 257.025H482.937L594.441 7.5595H611.45L696.117 209.4C700.653 220.487 706.197 229.307 712.748 235.858C719.3 242.41 726.859 246.19 735.427 247.198V256.647C733.411 257.151 730.513 257.529 726.733 257.781C723.206 258.285 720.056 258.537 717.284 258.537ZM541.524 171.224H626.947L585.369 72.5718L541.524 171.224ZM1044.79 274.034C1026.64 274.034 1011.9 271.136 1000.56 265.341C989.224 259.797 980.909 251.103 975.617 239.26C970.578 227.165 968.058 211.668 968.058 192.769V58.9645L885.28 257.025H872.807L771.509 51.405V257.025H752.61V7.5595H798.723L890.194 193.147L967.68 7.5595H1017.19V192.769C1017.19 215.7 1019.08 232.961 1022.86 244.552C1026.9 255.891 1034.2 262.569 1044.79 264.585V274.034ZM1188.55 264.585C1163.61 264.585 1141.68 258.789 1122.78 247.198C1104.14 235.354 1089.65 219.479 1079.32 199.572C1068.98 179.666 1063.82 157.239 1063.82 132.292C1063.82 107.346 1068.98 84.919 1079.32 65.0122C1089.65 45.1053 1104.14 29.3562 1122.78 17.7649C1141.68 5.9216 1163.61 -6.00766e-05 1188.55 -6.00766e-05C1213.75 -6.00766e-05 1235.55 5.9216 1253.94 17.7649C1272.59 29.3562 1287.08 45.1053 1297.41 65.0122C1307.74 84.919 1312.91 107.346 1312.91 132.292C1312.91 157.239 1307.74 179.666 1297.41 199.572C1287.08 219.479 1272.59 235.354 1253.94 247.198C1235.55 258.789 1213.75 264.585 1188.55 264.585ZM1188.55 247.576C1203.92 247.576 1216.9 243.166 1227.48 234.346C1238.32 225.275 1246.51 212.172 1252.05 195.037C1257.85 177.65 1260.75 156.735 1260.75 132.292C1260.75 107.598 1257.85 86.6829 1252.05 69.5479C1246.51 52.4129 1238.32 39.4357 1227.48 30.6162C1216.9 21.5447 1203.92 17.0089 1188.55 17.0089C1173.43 17.0089 1160.46 21.5447 1149.62 30.6162C1139.04 39.4357 1130.85 52.4129 1125.05 69.5479C1119.51 86.6829 1116.74 107.598 1116.74 132.292C1116.74 156.735 1119.51 177.65 1125.05 195.037C1130.85 212.172 1139.04 225.275 1149.62 234.346C1160.46 243.166 1173.43 247.576 1188.55 247.576ZM1360.74 257.025V56.6967C1360.74 45.3573 1359.1 36.2858 1355.82 29.4822C1352.8 22.4266 1345.62 18.8988 1334.28 18.8988H1330.5V7.5595H1375.85C1384.67 7.5595 1391.48 9.07141 1396.27 12.0952C1401.31 15.1191 1404.83 20.1588 1406.85 27.2144C1408.86 34.27 1409.87 44.0974 1409.87 56.6967V240.016H1540.28V257.025H1360.74ZM1599.47 257.025C1590.65 257.025 1583.72 255.639 1578.68 252.867C1573.9 249.844 1570.49 244.804 1568.48 237.748C1566.46 230.441 1565.46 220.487 1565.46 207.888V7.5595H1614.59V207.888C1614.59 219.227 1616.1 228.425 1619.13 235.48C1622.4 242.284 1629.71 245.686 1641.05 245.686H1644.83V257.025H1599.47ZM1786.89 264.585C1760.44 264.585 1737.88 258.915 1719.24 247.576C1700.59 236.236 1686.35 220.865 1676.52 201.462C1666.95 182.059 1662.16 160.263 1662.16 136.072C1662.16 116.921 1665.19 99.1562 1671.23 82.7772C1677.53 66.1461 1686.35 51.657 1697.69 39.3097C1709.03 26.9624 1722.26 17.3869 1737.38 10.5833C1752.5 3.52774 1769 -6.00766e-05 1786.89 -6.00766e-05C1810.58 -6.00766e-05 1829.61 3.14976 1843.97 9.44939C1858.58 15.497 1869.42 22.5526 1876.48 30.6162C1881.51 37.1678 1884.41 45.6093 1885.17 55.9407C1885.92 66.2721 1886.3 76.9815 1886.3 88.0689H1874.96C1870.18 65.1382 1861.36 47.6252 1848.5 35.5299C1835.91 23.1826 1819.15 17.0089 1798.23 17.0089C1782.86 17.0089 1768.88 20.5367 1756.28 27.5923C1743.68 34.6479 1733.6 46.8692 1726.04 64.2562C1718.73 81.3912 1715.08 105.33 1715.08 136.072C1715.08 150.435 1716.59 164.294 1719.61 177.65C1722.64 191.005 1727.43 202.974 1733.98 213.558C1740.78 224.141 1749.35 232.457 1759.68 238.504C1770.26 244.552 1783.11 247.576 1798.23 247.576C1815.62 247.576 1831.75 243.04 1846.61 233.968C1861.48 224.645 1873.45 211.164 1882.52 193.525L1895.75 203.73C1883.91 224.645 1869.42 240.016 1852.28 249.844C1835.15 259.671 1813.35 264.585 1786.89 264.585Z" fill="white"/>
</svg>
